<svg width="1440" height="1186" viewBox="0 0 1440 1186" fill="none" xmlns="http://www.w3.org/2000/svg">
<path d="M-12.8875 1C-13.2339 19.5309 -18.5024 134.761 110.764 136.063C1609 151.148 157.013 340.925 1376.89 179.478C1403.56 175.948 1506.11 149.626 1489.11 201.979V634.278H-12.8876V412.702L-12.8875 1Z" stroke="#699CFC" stroke-width="15"/>
<path d="M1490.88 1185C1491.24 1167.6 1496.67 1059.41 1363.53 1058.18C-179.529 1044.02 1315.9 865.829 59.5259 1017.42C32.0581 1020.73 -73.563 1045.45 -56.053 996.292V590.387H1490.88V798.435L1490.88 1185Z" stroke="#699CFC" stroke-width="15"/>
<path d="M-12.8875 15.6984C-13.1114 9.01445 -12.9409 3.85753 -12.8875 1L-12.8875 15.6984C-11.6597 52.3596 1.43092 134.962 110.764 136.063C1609 151.148 157.013 340.925 1376.89 179.478C1403.56 175.948 1506.11 149.626 1489.11 201.979V634.278H-12.8876V412.702L-12.8875 15.6984Z" fill="#020202"/>
<path d="M1490.88 1171.2C1491.11 1177.47 1490.94 1182.32 1490.88 1185L1490.88 1171.2C1489.62 1136.78 1476.14 1059.22 1363.53 1058.18C-179.529 1044.02 1315.9 865.829 59.5259 1017.42C32.0581 1020.73 -73.563 1045.45 -56.053 996.292V590.387H1490.88V798.435L1490.88 1171.2Z" fill="#020202"/>
</svg>
